<?xml version="1.0"?>
<svg xmlns:rdf="http://www.w3.org/1999/02/22-rdf-syntax-ns#" xmlns="http://www.w3.org/2000/svg" xmlns:cc="http://web.resource.org/cc/" xmlns:xlink="http://www.w3.org/1999/xlink" xmlns:dc="http://purl.org/dc/elements/1.1/" xmlns:svg="http://www.w3.org/2000/svg" space="preserve" viewBox="0 0 134.076 291.295" enable-background="new 0 0 134.076 291.295" overflow="visible">
  <g id="Layer_1">
    <g clip-rule="evenodd" fill-rule="evenodd">
      <path d="m52.889 84.548c27.642 0 50.076 18.58 50.076 41.472 0 22.893-22.434 41.472-50.076 41.472s-50.076-18.579-50.076-41.472c0.005-22.89 22.44-41.472 50.081-41.472" fill="#fff"/>
      <path stroke="#000" stroke-width=".036" stroke-miterlimit="10" d="m68.166 290.05l49.356-188.6-99.108-0.36 49.754 188.96z" fill="#fff"/>
      <path d="m65.969 128.3c-0.252-6.804 0.324-11.664 1.728-15.012 1.26-3.384 4.572-5.94 6.48-4.752 1.836 1.152 4.535 7.812 4.752 11.664 0 3.816-4.355 7.236-4.176 10.656 0.252 3.204 3.744 6.12 5.471 8.748 1.656 2.556 3.061 3.924 4.357 6.588 1.15 2.52 1.979 4.284 2.916 8.748 0.936 4.464 2.016 13.176 2.555 17.532 0.396 4.247 0.396 6.659 0 7.668l2.305 17.85c-2.125 5.904-3.744 6.084-4.859 0.396-1.117-5.832-0.938-26.064-1.836-34.309-0.973-8.244-2.629-10.943-3.996-14.616-1.549-3.671-2.16-3.78-4.752-7.271-2.629-3.53-6.228-8.21-10.945-13.9z"/>
      <path d="m43.938 101.63c1.332 7.668 2.628 19.008 3.888 34.56 1.188 15.516 2.664 42.373 3.456 57.924 0.684 15.408 0.972 26.604 0.864 34.164l1.728 6.479c1.188-6.983 1.764-17.604 1.728-32.436-0.108-15.084-0.828-39.097-2.16-56.196-1.404-17.064-3.384-31.716-6.084-44.928-1.117 0.16-2.269 0.3-3.42 0.45z"/>
      <path d="m31.374 100.76c2.988 16.092 5.148 30.348 6.48 43.2 1.26 12.853 1.692 23.76 1.296 33.3l2.628 8.208c1.296-10.728 1.476-22.932 0.396-37.188-1.08-14.4-3.42-30.06-6.876-47.952-1.297 0.15-2.593 0.29-3.924 0.43z"/>
      <path d="m59.921 106.38c1.728 18.828 2.88 37.044 3.456 55.765 0.576 18.647 0.396 38.808 0 55.332-0.54 16.416-1.548 30.203-3.024 42.336l1.296 6.048c2.16-11.376 3.744-24.984 4.752-41.508 1.044-16.704 1.656-36.217 1.296-57.024-0.54-20.809-1.98-42.624-4.32-66.564-1.152 1.87-2.304 3.74-3.456 5.61z"/>
      <path d="m78.064 149.62c0.686 4.86 0.938 13.607 0.469 26.784-0.504 13.212-1.943 35.063-3.061 51.407-1.115 16.164-2.268 30.925-3.455 44.965l4.752-14.688c3.275-29.952 5.291-53.64 6.047-72.18 0.686-18.468 0.109-30.96-1.727-38.052-0.18-2.125-0.613-3.564-1.297-4.32-0.756-0.864-1.764-0.864-3.023-0.396 0.432 2.16 0.864 4.32 1.295 6.48z"/>
      <path d="m71.152 134.89c-5.939 1.584-12.527 1.728-20.303 0.432-7.74-1.296-16.344-4.032-25.956-8.208l1.728 4.752c4.5 2.124 9.324 3.852 15.156 5.184 5.652 1.224 13.464 2.376 19.008 2.628 5.436 0.18 10.045-0.216 13.824-1.332-1.152-1.14-2.304-2.3-3.457-3.45z"/>
      <path d="m29.681 143.53c8.388 2.196 17.028 3.78 25.92 4.752 8.82 0.9 17.893 1.188 27.215 0.864l0.9 3.023c-7.523 0.612-15.695 0.433-24.66-0.396-9.072-0.973-18.54-2.376-28.98-4.752-0.107-1.14-0.251-2.29-0.395-3.48z"/>
      <path d="m33.533 158.65c7.812 1.836 15.84 2.952 24.66 3.492 8.748 0.468 17.82 0.359 27.648-0.469v2.628c-7.092 0.9-15.012 1.188-23.76 0.864-8.964-0.396-18.288-1.404-28.944-3.023 0.108-1.15 0.252-2.3 0.396-3.49z"/>
      <path d="m36.161 172.08c2.628 1.944 8.064 3.096 16.848 3.456 8.676 0.288 20.34-0.072 35.135-1.368l0.469 3.024c-16.236 1.943-28.368 2.735-36.936 2.664-8.604-0.145-13.212-1.296-14.22-3.456-0.432-1.43-0.864-2.87-1.296-4.31z"/>
      <path d="m41.777 188.5c7.848 2.124 15.48 3.348 23.472 3.672 7.883 0.252 15.696-0.252 23.723-1.8l-0.719 3.996c-7.236 1.656-14.438 2.16-22.285 1.908-7.884-0.36-15.768-1.656-24.192-3.889 0.001-1.3 0.001-2.6 0.001-3.89z"/>
      <path d="m46.097 207.07c2.196 1.008 5.508 1.872 9.936 2.592 4.428 0.756 10.692 1.512 16.416 1.729 5.688 0.035 11.268-0.396 17.279-1.297l-0.828 3.456c-6.695 1.044-13.248 1.477-20.339 1.296-7.02-0.252-14.22-1.115-21.6-2.592l-0.864-5.19z"/>
      <path d="m51.677 226.98c3.492 1.943 7.92 3.096 13.428 3.456 5.543 0.287 11.844-0.108 19.439-1.332l-2.16 4.355c-7.74 1.296-13.751 1.908-18.576 1.692-4.788-0.216-8.1-1.26-9.936-2.988-0.576-1.8-0.864-2.628-0.864-2.628-0.072-0.072 1.044 3.024 0.864 2.628-0.251-0.46-0.934-2.19-2.195-5.18z"/>
      <path d="m58.625 250.74c1.908 0.216 4.5 0.396 7.776 0.396 3.204 0 7.093-0.18 11.663-0.396l-1.295 4.319c-5.363 0.396-9.216 0.54-12.096 0.433-2.844-0.18-4.428-0.612-4.752-1.296l-1.296-3.45z"/>
      <path d="m20.141 108.11c1.836 0.972 6.3 2.124 13.392 3.456 7.164 1.26 16.596 2.7 28.98 4.32l0.864 4.32c-9.036-1.044-16.776-2.052-23.76-3.024-6.948-1.044-12.816-2.052-17.748-3.024-0.576-2.03-1.152-4.05-1.728-6.06z" fill="#fff"/>
      <path d="m67.733 118.22c3.419-0.432 8.46-1.944 15.659-4.824 7.092-2.88 15.984-6.948 26.82-12.348l3.889 0.324c-8.209 4.608-15.949 8.46-23.797 11.988-7.883 3.384-15.336 6.264-22.896 8.64 0.11-1.26 0.218-2.52 0.326-3.78z"/>
      <path d="m72.27 130.57c0.756 0.936 4.463-0.072 11.268-3.312 6.805-3.276 16.309-8.496 29.088-15.948l-1.512 5.112c-12.385 6.624-21.527 11.34-27.576 14.292-6.156 2.88-8.855 3.888-8.641 3.024-0.87-1.03-1.733-2.08-2.633-3.16z"/>
      <path d="m88.434 168.44c2.988-1.044 5.688-2.088 8.244-3.42 2.555-1.296 4.715-2.736 6.875-4.32l-3.42 6.876c-3.275 1.764-5.688 3.024-7.775 3.924-2.053 0.828-3.457 1.296-4.355 1.26 0.145-1.44 0.289-2.88 0.434-4.32z"/>
      <path d="m72.881 101.63c2.268 6.948 5.004 14.436 8.209 22.896 3.203 8.424 7.451 20.052 10.799 27.252 3.24 7.128 6.121 11.987 8.641 15.12l1.764-4.788c-5.111-8.064-9.684-16.992-13.859-27.216-4.213-10.332-7.957-21.24-11.232-33.696-1.437 0.15-2.879 0.29-4.318 0.44z"/>
      <path d="m87.389 101.48c0.109 1.548 1.549 6.12 4.32 14.256 2.809 8.064 6.732 19.152 12.168 33.804l1.512-5.724c-4.68-10.404-7.955-18.864-10.223-25.92-2.232-7.092-3.24-12.24-3.025-15.984-1.585-0.15-3.169-0.29-4.753-0.44z"/>
      <path d="m82.205 142.6c0.648-0.216 3.313-1.656 8.137-4.176 4.824-2.592 11.52-6.264 20.484-11.16l-1.514 5.112c-8.063 4.176-14.291 7.308-18.828 9.792-4.5 2.412-7.307 3.924-8.279 4.68-0.008-1.4-0.008-2.8-0.008-4.24z"/>
      <path d="m85.193 156.46c1.764-0.792 4.428-2.196 8.137-4.212 3.672-2.088 8.244-4.752 13.859-8.136l-2.125 5.76c-4.428 2.34-8.279 4.248-11.555 6.156-3.348 1.8-6.121 3.312-8.316 4.68 0.004-1.41 0.004-2.81 0.004-4.25z"/>
      <path d="m100.64 100.87c1.26 4.248 2.701 9 4.32 14.256 1.621 5.292 3.275 10.944 5.256 17.244l1.801-7.812c-1.332-1.044-2.484-3.42-3.6-7.272-1.152-3.888-2.16-9.216-3.025-15.984-1.6-0.15-3.18-0.29-4.76-0.44z"/>
      <path stroke="#000" stroke-width=".036" stroke-miterlimit="10" d="m15.533 100.44l2.844 7.56 0.54 4.932 1.8 2.34 2.88 11.16c0 2.556 0.036 4.284 0.504 5.472 0.36 1.116 0.972 1.548 1.836 1.296l2.304 9.072c-0.432 1.26-0.684 2.124-0.756 2.88-0.108 0.576-0.072 0.828 0.252 1.296 0.252 0.504 0.684 0.972 1.296 1.548l2.88 9.612c-0.756 1.188-1.152 2.088-1.044 2.844 0.036 0.648 0.792 0.864 1.296 1.332l1.296 1.296 2.088 8.316c-0.648 0.396-0.864 1.08-0.792 2.052 0.072 0.936 0.828 2.664 1.296 3.636 0.324 0.828 0.72 1.404 1.044 1.584l3.384 10.404c-0.252 0.792-0.288 1.512-0.252 2.304 0 0.72 0.216 1.548 0.504 2.088 0.288 0.396 0.72 0.792 1.296 0.792l2.34 11.952c-0.144-0.9-0.144-0.9 0 0 0.072 0.828 0.288 3.853 0.792 5.185 0.396 1.188 1.224 2.016 2.088 2.34l2.556 12.744c-1.152 0.684-1.44 1.548-1.008 2.592 0.396 1.08 1.656 2.195 3.636 3.636l3.636 16.884c-0.612 0.504-0.684 1.332-0.504 2.34 0.252 1.009 0.756 2.305 1.8 3.889-0.18-1.584 0.252-0.324 1.296 4.176s3.528 17.172 4.932 22.32c1.152 4.932 1.656 6.624 2.916 7.56 1.152 0.828 2.772 3.636 4.86-2.124 2.053-6.012 5.58-23.76 7.813-32.688 2.088-8.892 3.959-15.516 5.219-20.268 1.01-0.647 1.514-1.908 1.801-3.384 0.145-1.512 0.072-3.636-0.504-5.977 1.367-5.147 2.447-8.928 3.385-11.195 0.791-2.305 1.439-1.548 1.799-2.592 0.289-1.261 0.432-2.809 0.289-4.645 2.088-6.516 4.031-12.708 5.688-18.972 1.656-6.336 3.42-15.408 4.176-18.468 0.684-3.097 0.684-3.097 0 0 0.648 0.035 1.297-0.685 1.801-2.593 0.467-1.907 1.043-6.804 1.295-8.567 0.18-1.836 0.18-2.664 0-2.34l1.836-6.517c0.684-1.152 1.297-2.628 2.125-4.824 0.719-2.196 1.979-6.156 2.412-8.136 0.359-1.98 0.359-3.384 0-3.924l8.711-32.976h-2.592c-0.973 2.484-2.053 5.94-3.385 10.908-1.402 4.788-2.051 8.532-4.428 18.18-2.52 9.648-6.264 23.652-10.115 39.24-3.924 15.553-9.324 38.269-12.996 52.992-3.779 14.473-6.301 24.12-9.359 33.804-3.24 9.685-6.588 23.292-9.217 23.616-2.592 0.072-2.592-10.008-6.12-22.607-3.744-12.78-11.124-36.469-15.336-52.74-4.248-16.2-5.04-26.748-9.612-43.884-4.68-17.28-10.692-36.54-18.18-58.752-0.758 0.02-1.55 0.02-2.342 0.02z"/>
      <path stroke="#000" stroke-width=".036" stroke-miterlimit="10" d="m24.965 121.07l5.184-5.292c-3.384-1.872-6.264-3.744-8.64-6.048-2.52-2.376-3.168-5.58-5.688-7.524-2.592-1.908-8.244-0.432-9.18-4.032-0.972-3.78 1.548-13.824 3.816-17.928 2.232-4.14 6.516-3.96 9.504-6.804 2.772-3.024 2.664-6.48 7.596-10.8 4.788-4.5 10.404-13.176 21.564-15.192 11.232-1.944 34.416-0.468 45.252 3.456 10.656 3.816 15.156 13.536 18.793 19.44 3.492 5.796 4.5 10.872 2.627 15.372 5.58 2.952 9.541 5.76 11.736 8.424 2.123 2.664 0.648 4.896 1.549 7.524 0.936 2.556 3.383 4.032 4.139 7.884 0.721 3.78 1.584 11.628-0.18 14.652-2.016 2.844-5.76 4.68-11.375 2.736-5.652-2.052-12.926-6.804-22.105-14.652-5.832 7.488-10.367 12.204-14.004 14.292-3.672 1.944-4.211-3.132-7.596-2.016-3.455 1.08-8.027 6.552-12.6 8.784-4.752 2.088-10.44 2.484-14.832 4.392-4.392 1.98-8.676 7.56-11.052 7.164-2.304-0.54-3.384-4.068-2.952-10.44-5.472-0.036-9.108-1.044-11.052-3.312-1.925-2.3-2.142-5.61-0.522-10.07z"/>
      <path stroke="#000" stroke-width=".036" stroke-miterlimit="10" d="m32.021 114.66c-2.88-1.656-5.688-3.528-8.28-6.048-2.664-2.52-5.004-7.164-7.416-8.784-2.664-1.656-6.048 1.008-7.236-1.296-1.152-2.52-0.648-9.684 0.684-13.176 1.188-3.492 4.788-5.724 6.912-7.668 2.052-2.016 3.492-1.764 5.688-4.248 2.016-2.664 3.312-6.912 7.092-10.8 3.816-4.068 9.36-10.224 15.516-12.636 6.084-2.304 13.68-1.98 20.556-1.656 6.768 0.144 14.256 1.512 19.691 2.556 5.186 0.9 7.85 0.072 11.881 2.952 3.996 2.772 9.18 9.612 12.096 13.716 2.916 3.924 4.789 6.876 5.041 10.26 0.107 3.384-1.332 6.984-4.178 9.54-2.986 2.268-11.52 3.852-12.959 4.752-1.404 0.9 1.008 1.404 4.32 0.936 3.203-0.576 10.512-4.716 14.688-4.212 3.996 0.396 7.561 4.5 9.324 6.768 1.549 2.268-0.035 4.32 0.684 6.588 0.756 2.052 2.809 3.816 3.816 6.408 0.828 2.664 2.195 6.192 1.729 9.18-0.541 2.808-1.225 7.884-4.824 7.884-3.781-0.18-12.457-5.724-17.137-8.46-4.68-2.808-8.244-5.292-10.691-7.848-6.049 7.596-10.764 12.312-14.148 14.292-3.385 1.8-2.592-3.924-6.371-2.592-4.068 1.44-11.989 8.244-16.957 10.836-4.968 2.412-9.396 2.232-12.744 4.032-3.528 1.692-6.228 7.128-7.956 6.588-1.8-0.612-2.664-3.816-2.592-9.9-4.536 0.108-7.92-0.504-10.008-1.836-2.232-1.332-3.384-3.636-2.772-6.228 0.656-2.76 2.744-5.97 6.56-9.89z" fill="#fff"/>
      <path d="m18.737 91.764c2.664 3.348 8.388 11.052 13.284 14.652 4.788 3.528 6.336 7.74 15.192 6.228 8.784-1.692 30.095-11.664 37.152-15.912 6.768-4.284 6.84-10.44 3.961-9.72-2.988 0.612-13.682 10.728-21.241 13.536-7.632 2.736-15.3 5.4-23.832 3.132-8.676-2.52-22.896-15.156-27.108-17.208-4.176-1.98-0.072 1.872 2.592 5.292z"/>
      <path d="m43.938 128.23c2.232-2.052 8.784-4.356 11.736-4.968 2.844-0.684 2.016 3.312 5.724 1.296 3.708-2.232 12.853-11.664 16.056-13.572 2.881-1.872-0.504 2.88 2.053 2.592 2.592-0.468 13.607-5.436 13.32-4.788-0.469 0.648-10.297 4.968-15.732 8.64-5.508 3.6-12.924 10.548-17.101 12.636-4.284 1.872-5.328-2.016-8.28-1.116-3.06 0.792-8.352 6.048-9.648 6.048-1.333-0.22-0.433-4.79 1.872-6.77z"/>
      <path d="m93.834 80.424c1.727-3.24 8.387-8.964 11.23-9.54 2.846-0.576 5.076 4.212 5.725 6.588 0.576 2.448 0.037 5.328-2.592 7.524-2.844 2.088-11.629 5.184-14.004 4.572-2.332-0.864-2.26-6.048-0.352-9.144z"/>
      <path stroke="#000" stroke-width=".036" stroke-miterlimit="10" d="m57.113 79.02c-5.004-3.096-9.756-4.932-14.256-5.508-4.608-0.648-8.46 2.88-12.96 1.98-4.572-0.936-9.144-2.88-14.112-7.632-5.112-4.932-16.2-16.2-15.768-21.024 0.468-4.788 6.48-7.38 18.432-7.632-4.248-5.22-4.392-10.764-0.576-17.064 3.924-6.48 11.844-17.208 23.616-20.52 11.736-3.168 34.093-1.584 45.972 1.44 11.557 2.952 18.359 11.124 23.76 16.056 5.293 4.752 8.029 9 8.209 12.744 4.176-0.9 6.803-0.504 8.027 1.044 1.188 1.548 0.936 4.356-0.756 8.424 6.443 3.456 8.676 7.92 6.553 13.392-2.16 5.472-8.424 11.736-19.189 19.188-3.744-1.908-8.604-2.88-14.58-2.772-6.084 0-16.127 1.98-21.383 3.168-5.328 1.08-6.949 2.988-10.404 3.78-3.596 0.72-6.98 1.08-10.58 0.936z"/>
      <path stroke="#000" stroke-width=".036" stroke-miterlimit="10" d="m21.438 40.392c-2.952-0.54-5.976-0.36-8.928 0.396-3.168 0.684-7.632 2.268-9.072 4.068-1.512 1.692-2.052 2.124 0.756 6.3 2.772 4.104 11.268 14.868 16.344 18.54 5.04 3.528 9.936 2.448 13.86 2.88 3.816 0.252 5.22-1.44 9.216-0.648 3.96 0.828 10.008 4.932 14.4 5.652 4.284 0.576 6.84-1.044 11.161-2.088 4.211-1.188 8.459-3.564 14.111-4.608 5.545-1.152 14.111-2.052 19.332-1.728 5.148 0.324 8.965 1.332 11.592 3.42 6.48-4.536 11.016-8.784 14.148-12.6 3.023-3.96 4.355-7.56 3.996-10.512-0.576-2.916-2.771-5.328-6.984-7.092 0.756-2.088 1.152-3.744 1.045-5.256-0.145-1.584-0.613-3.132-1.801-3.672-1.404-0.684-4.535-1.008-5.939 0.144s-1.225 4.896-2.377 6.948c-1.367 1.98-4.896 6.012-4.896 4.86 0.109-1.368 4.682-9.324 5.365-12.636 0.611-3.276 0.791-3.78-1.945-7.344-3.023-3.852-9.432-10.98-15.336-14.724-5.867-3.852-10.654-6.12-19.619-7.632-9.252-1.656-24.732-3.852-34.632-1.152-9.936 2.916-20.232 11.376-24.228 18-3.996 6.444-3.852 13.14 0.433 20.484z" fill="#fff"/>
      <path d="m56.825 72.468c-3.708-1.332-14.04-10.008-17.388-10.908-3.42-0.9-0.432 5.328-2.7 5.652-2.34 0.144-7.02-1.116-10.98-4.212-4.14-3.132-12.996-13.14-12.816-14.076 0.252-0.936 11.448 8.676 14.292 8.424 2.628-0.504-3.528-12.384 2.088-10.512 5.652 1.944 26.892 17.496 31.644 21.924 4.5 4.284-0.576 4.824-4.14 3.708z"/>
      <path d="m71.98 16.344c2.736-2.052 13.572-4.104 19.332-3.672 5.652 0.396 10.693 3.6 14.438 6.3 3.635 2.628 6.66 5.688 7.271 9.72 0.432 3.96-3.637 10.404-4.141 13.932-0.432 3.348 4.355 2.952 1.045 6.588-3.6 3.708-20.484 15.768-21.889 15.084-1.367-1.044 12.492-16.164 13.824-20.232 1.188-3.96-6.588-1.116-6.229-3.672 0.324-2.772 9.252-8.964 8.461-12.348-0.9-3.456-8.641-7.236-13.5-7.884-4.896-0.684-12.744 4.572-15.768 3.96-3.129-0.72-5.648-5.904-2.842-7.776z"/>
      <path d="m122.42 44.064c2.555 0.18 7.848 5.652 7.416 9.072-0.721 3.492-6.984 8.928-11.018 11.304-4.104 2.16-11.375 2.592-13.066 1.98-1.729-0.756 0.324-4.212 2.951-6.048 2.592-1.944 11.195-3.708 12.348-5.148 0.973-1.584-6.336-1.836-6.084-3.672 0.25-2.016 4.82-7.704 7.45-7.488z"/>
      <path d="m48.797 28.188c-4.212 1.836-18.144 9.828-16.956 9.828 1.296-0.252 21.42-9.072 24.408-10.764 2.664-1.656-3.384-0.972-7.452 0.936z"/>
      <path d="m63.377 31.32c-3.672 1.872-15.336 9.972-14.148 9.864 1.188-0.324 18.792-9.504 21.276-11.16 2.231-1.584-3.528-0.684-7.128 1.296z"/>
      <path d="m79.721 35.28c-2.592 1.692-11.771 12.636-11.16 13.248 0.613 0.468 13.068-8.028 15.013-10.224 1.764-2.268-1.332-4.752-3.853-3.024z"/>
    </g>
  </g>
  <metadata>
    <rdf:RDF>
      <cc:Work>
        <dc:format>image/svg+xml</dc:format>
        <dc:type rdf:resource="http://purl.org/dc/dcmitype/StillImage"/>
        <cc:license rdf:resource="http://creativecommons.org/licenses/publicdomain/"/>
        <dc:publisher>
          <cc:Agent rdf:about="http://openclipart.org/">
            <dc:title>Openclipart</dc:title>
          </cc:Agent>
        </dc:publisher>
        <dc:title>Fast Food, Desserts, Ice Cream Cones, Waffle, Double</dc:title>
        <dc:date>2007-11-13T23:42:44</dc:date>
        <dc:description>This Clip Art is part of a fast food menu set. Search for "fastfood" to find all.</dc:description>
        <dc:source>http://openclipart.org/detail/8318/fast-food-desserts-ice-cream-cones-waffle-double-by-gerald_g-8318</dc:source>
        <dc:creator>
          <cc:Agent>
            <dc:title>Gerald_G</dc:title>
          </cc:Agent>
        </dc:creator>
        <dc:subject>
          <rdf:Bag>
            <rdf:li>clip art</rdf:li>
            <rdf:li>clipart</rdf:li>
            <rdf:li>colouring book</rdf:li>
            <rdf:li>cone</rdf:li>
            <rdf:li>dessert</rdf:li>
            <rdf:li>dinner</rdf:li>
            <rdf:li>fastfood</rdf:li>
            <rdf:li>food</rdf:li>
            <rdf:li>icecream</rdf:li>
            <rdf:li>lunch</rdf:li>
            <rdf:li>menu</rdf:li>
            <rdf:li>waffle</rdf:li>
          </rdf:Bag>
        </dc:subject>
      </cc:Work>
      <cc:License rdf:about="http://creativecommons.org/licenses/publicdomain/">
        <cc:permits rdf:resource="http://creativecommons.org/ns#Reproduction"/>
        <cc:permits rdf:resource="http://creativecommons.org/ns#Distribution"/>
        <cc:permits rdf:resource="http://creativecommons.org/ns#DerivativeWorks"/>
      </cc:License>
    </rdf:RDF>
  </metadata>
</svg>
